<svg width="144" height="26" viewBox="0 0 144 26" fill="none" xmlns="http://www.w3.org/2000/svg">
<path d="M44.3098 25.2714V23.7195L43.5866 25.0038H43.4026L42.686 23.7396V25.2714H42.2981V22.9302H42.6334L43.5012 24.4821L44.3558 22.9302H44.6911V25.2714H44.3098Z" fill="#898989"/>
<path d="M49.0496 24.9104V25.2716H47.4127V22.9304H49.0102V23.2916H47.8203V23.9004H48.8787V24.2616H47.8203V24.9037H49.0562L49.0496 24.9104Z" fill="#898989"/>
<path d="M51.6333 22.9304H52.5865C52.8166 22.9304 53.027 22.9772 53.2111 23.0776C53.3951 23.1712 53.5332 23.3117 53.6318 23.4856C53.7304 23.6662 53.783 23.8669 53.783 24.101C53.783 24.3352 53.7304 24.5358 53.6318 24.7164C53.5332 24.8904 53.3886 25.0308 53.2111 25.1245C53.027 25.2248 52.8232 25.2716 52.5865 25.2716H51.6333V22.9304ZM52.5668 24.9037C52.7246 24.9037 52.8692 24.8703 52.9875 24.8034C53.1125 24.7365 53.2045 24.6429 53.2702 24.5225C53.336 24.402 53.3688 24.2616 53.3688 24.101C53.3688 23.9405 53.336 23.8 53.2702 23.6796C53.2045 23.5592 53.1125 23.4656 52.9875 23.3987C52.8692 23.3318 52.7246 23.2983 52.5668 23.2983H52.0343V24.9037H52.5668Z" fill="#898989"/>
<path d="M56.3404 22.9304H56.7478V25.2716H56.3404V22.9304Z" fill="#898989"/>
<path d="M59.8772 25.151C59.6997 25.044 59.5617 24.9035 59.4565 24.7229C59.3513 24.5423 59.3053 24.335 59.3053 24.1075C59.3053 23.8801 59.3579 23.6727 59.4565 23.4921C59.5551 23.3115 59.6997 23.1643 59.8772 23.064C60.0548 22.9637 60.252 22.9102 60.4755 22.9102C60.653 22.9102 60.8173 22.9436 60.9686 23.0105C61.1132 23.0774 61.2447 23.1777 61.3433 23.3048L61.0803 23.5657C60.9225 23.3851 60.7253 23.2914 60.4952 23.2914C60.344 23.2914 60.2125 23.3249 60.0942 23.3985C59.9759 23.4654 59.8838 23.5657 59.8181 23.6928C59.7523 23.8199 59.7195 23.9604 59.7195 24.1142C59.7195 24.2681 59.7523 24.4152 59.8181 24.5356C59.8838 24.656 59.9759 24.7564 60.0942 24.83C60.2125 24.9035 60.344 24.937 60.4952 24.937C60.7253 24.937 60.9225 24.8433 61.0803 24.656L61.3433 24.9236C61.2381 25.0507 61.1132 25.1444 60.9686 25.2179C60.8173 25.2848 60.653 25.3183 60.4755 25.3183C60.2585 25.3183 60.0548 25.2648 59.8772 25.1644V25.151Z" fill="#898989"/>
<path d="M65.2286 24.7367H64.1373L63.9203 25.2785H63.4996L64.4857 22.9373H64.8867L65.8728 25.2785H65.4455L65.2286 24.7367ZM65.0971 24.3955L64.6829 23.3721L64.2753 24.3955H65.0971Z" fill="#898989"/>
<path d="M68.279 22.9304H68.6866V24.9037H69.8305V25.2716H68.279V22.9304Z" fill="#898989"/>
<path d="M75.918 22.9304H76.3254V25.2716H75.918V22.9304Z" fill="#898989"/>
<path d="M80.9869 22.9304V25.2716H80.6516L79.4485 23.6863V25.2716H79.0475V22.9304H79.3828L80.5858 24.5158V22.9304H80.9869Z" fill="#898989"/>
<path d="M84.1029 23.2985V24.0142H85.1614V24.3821H84.1029V25.2785H83.6953V22.9373H85.2929V23.2985H84.1029Z" fill="#898989"/>
<path d="M88.2118 25.151C88.0343 25.044 87.8896 24.9035 87.791 24.7229C87.6858 24.5356 87.6398 24.335 87.6398 24.1075C87.6398 23.8801 87.6924 23.6727 87.791 23.4921C87.8962 23.3115 88.0343 23.1643 88.2118 23.064C88.3893 22.9637 88.5931 22.9102 88.8166 22.9102C89.0401 22.9102 89.2374 22.9637 89.4214 23.064C89.6055 23.1643 89.7436 23.3115 89.8422 23.4921C89.9408 23.6727 89.9934 23.8801 89.9934 24.1075C89.9934 24.335 89.9408 24.5423 89.8422 24.7229C89.7436 24.9035 89.5989 25.0507 89.4214 25.151C89.2439 25.2514 89.0401 25.3049 88.8166 25.3049C88.5931 25.3049 88.3959 25.2514 88.2118 25.151ZM89.2045 24.8166C89.3228 24.7497 89.4149 24.6494 89.4806 24.5223C89.5463 24.3952 89.5792 24.2547 89.5792 24.1008C89.5792 23.947 89.5463 23.8065 89.4806 23.6794C89.4149 23.5523 89.3228 23.4587 89.2045 23.3851C89.0861 23.3115 88.9547 23.2781 88.81 23.2781C88.6654 23.2781 88.5339 23.3115 88.4156 23.3851C88.2973 23.452 88.2052 23.5523 88.1395 23.6794C88.0737 23.8065 88.0409 23.947 88.0409 24.1008C88.0409 24.2547 88.0737 24.3952 88.1395 24.5223C88.2052 24.6494 88.2973 24.743 88.4156 24.8166C88.5339 24.8902 88.6654 24.9236 88.81 24.9236C88.9547 24.9236 89.0861 24.8902 89.2045 24.8166Z" fill="#898989"/>
<path d="M93.9773 25.2713L93.5302 24.5823C93.5302 24.5823 93.4842 24.5823 93.4448 24.5823H92.9517V25.2646H92.5441V22.9233H93.4448C93.6354 22.9233 93.7998 22.9568 93.9378 23.0237C94.0759 23.0906 94.1877 23.1842 94.26 23.3113C94.3323 23.4384 94.3717 23.5856 94.3717 23.7595C94.3717 23.9334 94.3323 24.0873 94.2534 24.2144C94.1745 24.3415 94.0562 24.4351 93.9116 24.4953L94.4112 25.2646H93.9707L93.9773 25.2713ZM93.8327 23.4183C93.7406 23.3381 93.6091 23.2979 93.4316 23.2979H92.9583V24.2344H93.4316C93.6091 24.2344 93.7406 24.1943 93.8327 24.114C93.9247 24.0338 93.9707 23.92 93.9707 23.7662C93.9707 23.6123 93.9247 23.4986 93.8327 23.425V23.4183Z" fill="#898989"/>
<path d="M98.9672 25.2716V23.7197L98.244 25.0041H98.06L97.3434 23.7398V25.2716H96.9555V22.9304H97.2908L98.1586 24.4823L99.0132 22.9304H99.3485V25.2716H98.9672Z" fill="#898989"/>
<path d="M103.484 24.7367H102.392L102.175 25.2785H101.755L102.741 22.9373H103.142L104.128 25.2785H103.701L103.484 24.7367ZM103.352 24.3955L102.938 23.3721L102.53 24.3955H103.352Z" fill="#898989"/>
<path d="M106.863 23.2983H106.139V22.9304H107.993V23.2983H107.27V25.2716H106.863V23.2983Z" fill="#898989"/>
<path d="M110.426 22.9304H110.833V25.2716H110.426V22.9304Z" fill="#898989"/>
<path d="M113.969 25.151C113.792 25.044 113.647 24.9035 113.549 24.7229C113.443 24.5356 113.397 24.335 113.397 24.1075C113.397 23.8801 113.45 23.6727 113.549 23.4921C113.647 23.3115 113.792 23.1643 113.969 23.064C114.147 22.9637 114.351 22.9102 114.574 22.9102C114.798 22.9102 114.995 22.9637 115.179 23.064C115.363 23.1643 115.501 23.3115 115.6 23.4921C115.698 23.6727 115.751 23.8801 115.751 24.1075C115.751 24.335 115.698 24.5423 115.6 24.7229C115.501 24.9035 115.357 25.0507 115.179 25.151C115.002 25.2514 114.798 25.3049 114.574 25.3049C114.351 25.3049 114.153 25.2514 113.969 25.151ZM114.969 24.8166C115.087 24.7497 115.179 24.6494 115.245 24.5223C115.311 24.3952 115.343 24.2547 115.343 24.1008C115.343 23.947 115.311 23.8065 115.245 23.6794C115.179 23.5523 115.087 23.4587 114.969 23.3851C114.85 23.3115 114.719 23.2781 114.574 23.2781C114.43 23.2781 114.298 23.3115 114.18 23.3851C114.061 23.452 113.969 23.5523 113.904 23.6794C113.838 23.8065 113.805 23.947 113.805 24.1008C113.805 24.2547 113.838 24.3952 113.904 24.5223C113.969 24.6494 114.061 24.743 114.18 24.8166C114.298 24.8902 114.43 24.9236 114.574 24.9236C114.719 24.9236 114.85 24.8902 114.969 24.8166Z" fill="#898989"/>
<path d="M120.248 22.9304V25.2716H119.912L118.709 23.6863V25.2716H118.308V22.9304H118.643L119.847 24.5158V22.9304H120.248Z" fill="#898989"/>
<path d="M127.025 25.151C126.848 25.044 126.71 24.9035 126.605 24.7229C126.506 24.5423 126.454 24.335 126.454 24.1075C126.454 23.8801 126.506 23.6727 126.605 23.4921C126.703 23.3115 126.848 23.1643 127.025 23.064C127.203 22.957 127.4 22.9102 127.624 22.9102C127.801 22.9102 127.966 22.9436 128.117 23.0105C128.268 23.0774 128.393 23.1777 128.491 23.3048L128.229 23.5657C128.071 23.3851 127.874 23.2914 127.643 23.2914C127.492 23.2914 127.361 23.3249 127.242 23.3985C127.124 23.4654 127.032 23.5657 126.966 23.6928C126.901 23.8199 126.868 23.9604 126.868 24.1142C126.868 24.2681 126.901 24.4152 126.966 24.5356C127.032 24.6627 127.124 24.7564 127.242 24.83C127.361 24.9035 127.492 24.937 127.643 24.937C127.874 24.937 128.071 24.8433 128.229 24.656L128.491 24.9236C128.386 25.0507 128.261 25.1444 128.117 25.2179C127.966 25.2848 127.801 25.3183 127.624 25.3183C127.4 25.3183 127.203 25.2648 127.025 25.1644V25.151Z" fill="#898989"/>
<path d="M131.378 25.151C131.2 25.044 131.055 24.9035 130.957 24.7229C130.852 24.5356 130.806 24.335 130.806 24.1075C130.806 23.8801 130.858 23.6727 130.957 23.4921C131.062 23.3115 131.2 23.1643 131.378 23.064C131.555 22.9637 131.759 22.9102 131.982 22.9102C132.206 22.9102 132.403 22.9637 132.587 23.064C132.771 23.1643 132.909 23.3115 133.008 23.4921C133.107 23.6727 133.159 23.8801 133.159 24.1075C133.159 24.335 133.107 24.5423 133.008 24.7229C132.909 24.9035 132.765 25.0507 132.587 25.151C132.41 25.2514 132.206 25.3049 131.982 25.3049C131.759 25.3049 131.562 25.2514 131.378 25.151ZM132.37 24.8166C132.489 24.7497 132.581 24.6494 132.646 24.5223C132.712 24.3952 132.745 24.2547 132.745 24.1008C132.745 23.947 132.712 23.8065 132.646 23.6794C132.581 23.5523 132.489 23.4587 132.37 23.3851C132.252 23.3115 132.12 23.2781 131.976 23.2781C131.831 23.2781 131.7 23.3115 131.581 23.3851C131.463 23.452 131.371 23.5523 131.305 23.6794C131.24 23.8065 131.207 23.947 131.207 24.1008C131.207 24.2547 131.24 24.3952 131.305 24.5223C131.371 24.6494 131.463 24.743 131.581 24.8166C131.7 24.8902 131.831 24.9236 131.976 24.9236C132.12 24.9236 132.252 24.8902 132.37 24.8166Z" fill="#898989"/>
<path d="M137.143 25.2713L136.696 24.5823C136.696 24.5823 136.65 24.5823 136.611 24.5823H136.118V25.2646H135.71V22.9233H136.611C136.801 22.9233 136.966 22.9568 137.104 23.0237C137.242 23.0906 137.353 23.1842 137.426 23.3113C137.498 23.4384 137.538 23.5856 137.538 23.7595C137.538 23.9334 137.498 24.0873 137.419 24.2144C137.34 24.3415 137.222 24.4351 137.077 24.4953L137.577 25.2646H137.137L137.143 25.2713ZM136.998 23.4183C136.906 23.3381 136.775 23.2979 136.597 23.2979H136.124V24.2344H136.597C136.775 24.2344 136.906 24.1943 136.998 24.114C137.091 24.0338 137.137 23.92 137.137 23.7662C137.137 23.6123 137.091 23.4986 136.998 23.425V23.4183Z" fill="#898989"/>
<path d="M141.522 23.0376C141.66 23.1045 141.771 23.1981 141.844 23.3252C141.916 23.4523 141.955 23.5995 141.955 23.7734C141.955 23.9473 141.916 24.0878 141.844 24.2149C141.771 24.342 141.66 24.4356 141.522 24.5025C141.383 24.5694 141.219 24.6029 141.028 24.6029H140.535V25.2785H140.128V22.9373H141.028C141.219 22.9373 141.383 22.9707 141.522 23.0376ZM141.41 24.1146C141.502 24.0343 141.548 23.9206 141.548 23.7734C141.548 23.6262 141.502 23.5058 141.41 23.4323C141.318 23.352 141.186 23.3119 141.009 23.3119H140.535V24.2417H141.009C141.186 24.2417 141.318 24.2015 141.41 24.1212V24.1146Z" fill="#898989"/>
<path d="M25.6851 3.21753H22.0693V7.35146H25.718C26.8158 7.35146 27.7099 8.2612 27.7099 9.3783V19.1646C27.7099 20.2817 26.8158 21.1915 25.718 21.1915H17.921V18.1211C15.6858 18.1211 13.8582 19.9606 13.8582 22.235V25.3187H25.6917C29.0445 25.3187 31.7596 22.5561 31.7596 19.1446V9.39167C31.7596 5.98017 29.0445 3.21753 25.6917 3.21753H25.6851Z" fill="#22AC38"/>
<path d="M14.9102 11.666H4.04967V3.21753H0V25.3187H4.04967V15.7799H13.8583V18.9238C14.7261 17.5927 16.2118 16.7097 17.908 16.703V14.7029C17.908 13.0239 16.5668 11.666 14.9167 11.666H14.9102Z" fill="#2A5BA9"/>
<path d="M15.8897 10.5624C15.0482 10.5624 14.3579 9.86668 14.3579 9.00377V7.98032C14.3579 7.8064 14.496 7.66592 14.6669 7.66592C14.8379 7.66592 14.9759 7.8064 14.9759 7.98032V9.00377C14.9759 9.51215 15.3835 9.92688 15.8831 9.92688C16.3828 9.92688 16.7904 9.51215 16.7904 9.00377V6.52207C16.7904 6.34815 16.9284 6.20768 17.0994 6.20768H19.5384C20.038 6.20768 20.4456 5.79294 20.4456 5.28456C20.4456 4.77618 20.038 4.36145 19.5384 4.36145H17.0994C16.9284 4.36145 16.7904 4.22098 16.7904 4.04706C16.7904 3.87314 16.9284 3.73267 17.0994 3.73267H19.5384C20.3799 3.73267 21.0701 4.42834 21.0701 5.29125C21.0701 6.15416 20.3864 6.84984 19.5384 6.84984H17.4083V9.01715C17.4083 9.87337 16.7246 10.5757 15.8766 10.5757L15.8897 10.5624Z" fill="#2A5BA9"/>
<path d="M14.6669 6.84307H12.2278C11.3864 6.84307 10.6961 6.14739 10.6961 5.28448C10.6961 4.42157 11.3798 3.72589 12.2278 3.72589H14.3579V1.55859C14.3579 0.702368 15.0416 0 15.8896 0C16.7377 0 17.4214 0.695678 17.4214 1.55859V2.58204C17.4214 2.75596 17.2834 2.89643 17.1124 2.89643C16.9415 2.89643 16.8035 2.75596 16.8035 2.58204V1.55859C16.8035 1.05021 16.3959 0.635475 15.8962 0.635475C15.3966 0.635475 14.989 1.05021 14.989 1.55859V4.04029C14.989 4.21421 14.8509 4.35468 14.68 4.35468H12.241C11.7414 4.35468 11.3338 4.76941 11.3338 5.27779C11.3338 5.78617 11.7414 6.2009 12.241 6.2009H14.68C14.8509 6.2009 14.989 6.34138 14.989 6.5153C14.989 6.68922 14.8509 6.82969 14.68 6.82969L14.6669 6.84307Z" fill="#22AC38"/>
<path d="M47.5771 13.3253H48.8394V19.5597H51.6202V5.67285H48.8394V11.2249H47.5771" fill="#231815"/>
<path d="M55.3017 5.67285H52.5406V19.5597H55.3017V5.67285Z" fill="#231815"/>
<path d="M43.8956 5.66602C41.8642 5.66602 40.2141 7.34501 40.2141 9.41198V15.8069C40.2141 17.8738 41.8642 19.5528 43.8956 19.5528C45.927 19.5528 47.5772 17.8738 47.5772 15.8069V9.41198C47.5772 7.34501 45.927 5.66602 43.8956 5.66602ZM45.2368 15.5661C45.2368 16.2885 44.7108 16.8771 44.06 16.8771H43.7247C43.0739 16.8771 42.5479 16.2885 42.5479 15.5661V9.65948C42.5479 8.93704 43.0739 8.34839 43.7247 8.34839H44.06C44.7108 8.34839 45.2368 8.93704 45.2368 9.65948V15.5661Z" fill="#231815"/>
<path d="M72.7232 5.67285H69.9555V19.5597H72.7232V5.67285Z" fill="#231815"/>
<path d="M85.3192 6.53516H74.8072V8.20077H85.3192V6.53516Z" fill="#231815"/>
<path d="M76.2008 19.5524C79.8955 18.0139 81.4733 14.0271 81.4733 10.0202V8.19409H78.8502V9.54531C78.8502 12.6157 78.3177 15.1241 75.4777 16.8633L76.2008 19.5524Z" fill="#231815"/>
<path d="M81.4798 5.67285H78.8568V6.5759H81.4798V5.67285Z" fill="#231815"/>
<path d="M80.9904 12.6147L79.0048 14.021L82.7906 19.5551L84.7762 18.1488L80.9904 12.6147Z" fill="#231815"/>
<path d="M89.9014 5.67285H87.1337V19.5597H89.9014V5.67285Z" fill="#231815"/>
<path d="M107.678 5.67285H104.91V19.5597H107.678V5.67285Z" fill="#231815"/>
<path d="M95.6077 17.4659C95.1935 17.4659 94.8583 17.1248 94.8583 16.7034V14.1882C93.7801 14.1882 92.7677 14.6565 92.0905 15.4057V17.0178C92.0905 18.4292 93.2147 19.5664 94.5953 19.5664H102.373V17.4659H95.6077ZM94.8583 7.77326H102.129V5.67285H92.0971V13.7869C92.8794 13.2584 93.859 12.9507 94.8648 12.9507V7.77326H94.8583Z" fill="#231815"/>
<path d="M144 5.67285H141.232V19.5597H144V5.67285Z" fill="#231815"/>
<path d="M131.93 17.4659C131.516 17.4659 131.18 17.1248 131.18 16.7034V14.1882C130.102 14.1882 129.09 14.6565 128.413 15.4057V17.0178C128.413 18.4292 129.537 19.5664 130.917 19.5664H138.695V17.4659H131.93ZM131.18 7.77326H138.451V5.67285H128.419V13.7869C129.201 13.2584 130.181 12.9507 131.187 12.9507V7.77326H131.18Z" fill="#231815"/>
<path d="M112.411 19.5597H118.4V13.3253H119.662V19.5597H122.443V5.67285H119.662V11.2249H118.4V5.67285H109.9V17.0111C109.9 18.4225 111.024 19.5597 112.404 19.5597H112.411ZM112.667 7.76658H115.632V17.4592H113.417C113.003 17.4592 112.667 17.1181 112.667 16.6967V7.77326V7.76658Z" fill="#231815"/>
<path d="M126.125 5.67285H123.364V19.5597H126.125V5.67285Z" fill="#231815"/>
<path d="M63.539 5.66602H62.2176C59.68 5.66602 57.6223 7.75974 57.6223 10.3418V13.7065C58.3192 13.265 59.1672 12.9974 60.0416 12.9573V10.8167C60.0416 9.4588 61.1263 8.35508 62.4609 8.35508H63.2958C64.6303 8.35508 65.7151 9.4588 65.7151 10.8167V14.4088C65.7151 15.7667 64.6303 16.8705 63.2958 16.8705H62.4609C61.1263 16.8705 60.0416 15.7667 60.0416 14.4088V14.2015C59.1212 14.255 58.2666 14.6496 57.642 15.265C57.8327 17.6732 59.8049 19.5595 62.2176 19.5595H63.539C66.0767 19.5595 68.1344 17.4658 68.1344 14.8838V10.3485C68.1344 7.76643 66.0767 5.6727 63.539 5.6727V5.66602Z" fill="#231815"/>
</svg>
